<svg xmlns="http://www.w3.org/2000/svg">
 <g xmlns="http://www.w3.org/2000/svg" id="rowGroup" transform="translate(0, 0)">
      <rect x="25" y="40" width="310" height="20"  style="fill:rgb(255,255,255);stroke-width:1;stroke:rgb(0,0,0)"/>
      <rect x="25" y="60" width="310" height="20"  style="fill:rgb(255,255,255);stroke-width:1;stroke:rgb(0,0,0)"/>
	  <rect x="25" y="80" width="310" height="20"  style="fill:rgb(255,255,255);stroke-width:1;stroke:rgb(0,0,0)"/>
	  <rect x="25" y="100" width="310" height="20"  style="fill:rgb(255,255,255);stroke-width:1;stroke:rgb(0,0,0)"/>
	  <line x1="77.5" y1="40" x2="77.5" y2="120"  style="stroke:rgb(0,0,0);stroke-width:1"/>
	  <line x1="155" y1="40" x2="155" y2="120"  style="stroke:rgb(0,0,0);stroke-width:1"/>
	  <line x1="232.5" y1="40" x2="232.5" y2="120"  style="stroke:rgb(0,0,0);stroke-width:1"/>


      <rect x="30" y="47.5" width="5" height="5"  style="fill:rgb(0,0,0);stroke-width:1;stroke:rgb(0,0,0)"/>

      <text x="35" y="55" width="70" font-size="18px" alignment-baseline="top" text-anchor="left">1,1</text>
      <text x="82.5" y="55" width="70" font-size="18px" alignment-baseline="top" text-anchor="left"> 1,2</text>
      <text x="160" y="55" width="70" font-size="18px" alignment-baseline="top" text-anchor="left"> 1,3 </text>
      <text x="237.5" y="55" width="70" font-size="18px" alignment-baseline="top" text-anchor="left">   1,4</text>

      <text x="35" y="75" width="70" font-size="18px" alignment-baseline="top" text-anchor="left">2,1</text>
      <text x="82.5" y="75" width="70" font-size="18px" alignment-baseline="top" text-anchor="left">2,2</text>
      <text x="160" y="75" width="70" font-size="18px" alignment-baseline="top" text-anchor="left">2,3</text>
      <text x="237.5" y="75" width="70" font-size="18px" alignment-baseline="top" text-anchor="left"> 2,4</text>

      <text x="35" y="95" width="70" font-size="18px" alignment-baseline="top" text-anchor="left"> 3,1 </text>
      <text x="82.5" y="95" width="70" font-size="18px" alignment-baseline="top" text-anchor="left"> 3,2 </text>
      <text x="160" y="95" width="70" font-size="18px" alignment-baseline="top" text-anchor="left"> 3,3 </text>
      <text x="237.5" y="95" width="70" font-size="18px" alignment-baseline="top" text-anchor="left">3,4</text>

      <text x="35" y="115" width="70" font-size="18px" alignment-baseline="top" text-anchor="left"> 4,1</text>
      <text x="82.5" y="115" width="70" font-size="18px" alignment-baseline="top" text-anchor="left">4,2 </text>
      <text x="160" y="115" width="70" font-size="18px" alignment-baseline="top" text-anchor="left"> 4,3 </text>
      <text x="237.5" y="115" width="70" font-size="18px" alignment-baseline="top" text-anchor="left"> 4,4</text>


   </g>
</svg>